name new_emg_signals
nRows=38
nColumns=7
 
endheader
time	LGLTMED	LRF	LADDLONG	LBF	LTA	LGM
5.16999999999989	0.3289700117129531	0.2670921047749253	0.554908254430896	0.4200634628411324	0.3960355625555189	0.4777572014456861
5.179999999999888	0.3255412918933227	0.2670897900685254	0.5533640780793821	0.4198764454143212	0.400194903511222	0.4820999183658429
5.189999999999886	0.3222490713157266	0.2670796711053428	0.5520083886448255	0.4198691874359567	0.4044498871951747	0.4865119668349232
5.199999999999887	0.3190976282754064	0.2670607779418885	0.5508405169629027	0.4200373713961534	0.4087961801615854	0.4909887832954159
5.209999999999885	0.316090974498589	0.2670321614206266	0.5498595407455503	0.420376377014092	0.4132292697534692	0.4955256672940671
5.219999999999887	0.3132328499422232	0.2669928956943592	0.5490642869596665	0.4208812922777226	0.4177444709845524	0.5001177884055662
5.229999999999885	0.3105267181276234	0.2669420806511672	0.5484533346233902	0.4215469250596538	0.4223369336969816	0.5047601933549181
5.23999999999989	0.3079757620100065	0.2668788442291738	0.5480250180114931	0.4223678152875536	0.427001649976801	0.5094478133217872
5.2499999999998845	0.3055828803847045	0.2668023446119395	0.5477774302611245	0.4233382476457292	0.4317334618085445	0.5141754714110506
5.259999999999886	0.3033506848297896	0.2667117722970949	0.5477084273699131	0.4244522647831464	0.436527068949893	0.5189378902729006
5.269999999999884	0.3012814971839886	0.2666063520326173	0.5478156325784624	0.4257036810018002	0.4413770370073745	0.5237296998565002
5.279999999999886	0.299377347557681	0.2664853446165725	0.548096441129664	0.4270860963978459	0.4462778056945889	0.5285454452816022
5.289999999999884	0.297639972874302	0.2663480485569883	0.5485480253965963	0.4285929114266251	0.4512236972553209	0.5333795948138204
5.299999999999885	0.2960708159387917	0.2661938015891241	0.5491673403703272	0.4302173418615935	0.4562089250350155	0.5382265479298556
5.309999999999883	0.2946710250293217	0.2660219820479016	0.54995112949817	0.431952434115908	0.4612276021853194	0.5430806434596689
5.319999999999885	0.29344145400871	0.2658320100938117	0.5508959308630088	0.4337910808945565	0.4662737504877288	0.5479361677935366
5.329999999999879	0.2923826629518883	0.2656233487909412	0.5519980836944245	0.4357260371436466	0.4713413092838769	0.5527873631424677
5.339999999999884	0.2914949192859769	0.2653955050358256	0.5532537352026371	0.4377499362622801	0.4764241445017334	0.5576284358426361
5.349999999999882	0.2907781994395096	0.265148030335937	0.5546588477260955	0.4398553065413838	0.4815160577689979	0.5624535646963421
5.359999999999884	0.2902321909966909	0.264880521437188	0.5562092061830185	0.4420345877923524	0.4866107956072213	0.567256909344738
5.369999999999882	0.2898562953523014	0.2645926208009179	0.5579004258161847	0.4442801481271925	0.4917020587025406	0.5720326186701347
5.3799999999998835	0.2896496308618475	0.2642840169323699	0.5597279602199601	0.4465843008504536	0.4967835112511099	0.5767748392268969
5.3899999999998816	0.2896110364809877	0.2639544445642831	0.5616871096382257	0.4489393214220232	0.5018487903791558	0.5814777237022754
5.39999999999988	0.2897390758873669	0.2636036847004597	0.5637730295220861	0.4513374644485927	0.50689151563877	0.5861354394090841
5.409999999999881	0.2900320420770834	0.2632315645250764	0.5659807393361833	0.4537709806609926	0.5119052985810444	0.5907421768130603
5.419999999999879	0.290487962427493	0.2628379571841137	0.5683051316019041	0.4562321338337357	0.5168837524080852	0.5952921580980437
5.429999999999881	0.2911046042169435	0.2624227814456817	0.5707409811648153	0.4587132176032389	0.5218205017051492	0.5997796457717349
5.439999999999882	0.2918794805916863	0.2619860012465363	0.573282954672435	0.4612065721410054	0.5267091922536429	0.6041989513142778
5.44999999999988	0.2928098569691061	0.261527625132381	0.5759256202470003	0.4637046006390894	0.5315435009249865	0.6085444438711114
5.459999999999882	0.2938927578659976	0.2610477055996946	0.5786634573362762	0.466199785566067	0.5363171456543541	0.6128105589905333
5.46999999999988	0.2951249741397002	0.260546338346931	0.5814908667237618	0.4686847046528968	0.541023895492123	0.616991807404996
5.479999999999881	0.2965030706291743	0.260023661442671	0.5844021806781332	0.4711520465685654	0.5456575807295103	0.6210827838537794
5.489999999999879	0.2980233941824237	0.259479854418305	0.5873916732198474	0.4735946262457801	0.5502121030933237	0.6250781759434004
5.499999999999881	0.299682082056134	0.2589151372925466	0.5904535704815153	0.4760053998171081	0.5546814460030227	0.6289727730405058
5.509999999999879	0.3014750706730544	0.2583297695349777	0.593582061137758	0.4783774791221053	0.5590596848813632	0.632761475189895
5.519999999999881	0.3033981047222213	0.2577240489755664	0.5967713068801546	0.4807041457456741	0.5633409975078634	0.6364393020483876
5.529999999999882	0.3054467465870187	0.2570983106666593	0.6000154529128288	0.4829788645476617	0.5675196744022428	0.6400014018228795
5.53999999999988	0.3076163860854821	0.2564529257034633	0.6033086384447731	0.4851952966432895	0.5715901292229426	0.6434430601983527
